General
Complete name                    :The Lord of the Rings - The Two Towers Extended 720P( HD ) by PiTsToP.mp4
Format                           : MPEG-4
Format profile                   : Base Media
Codec ID                         : isom
File size                        : 3.10 GiB
Duration                         : 3h 55mn
Overall bit rate                 : 1 886 Kbps
Encoded date                     : UTC 2011-06-12 06:29:32
Tagged date                      : UTC 2011-06-12 06:29:32
Writing application              : Yamb 2.1.0.0 [http://yamb.unite-video.com]

Video
ID                               : 1
Format                           : AVC
Format/Info                      : Advanced Video Codec
Format profile                   : High@L4.1
Format settings, CABAC           : Yes
Format settings, ReFrames        : 4 frames
Codec ID                         : avc1
Codec ID/Info                    : Advanced Video Coding
Duration                         : 3h 55mn
Bit rate mode                    : Variable
Bit rate                         : 1 462 Kbps
Maximum bit rate                 : 7 195 Kbps
Width                            : 1 280 pixels
Height                           : 536 pixels
Display aspect ratio             : 2.35
Frame rate mode                  : Constant
Frame rate                       : 23.976 fps
Resolution                       : 24 bits
Colorimetry                      : 4:2:0
Scan type                        : Progressive
Bits/(Pixel*Frame)               : 0.089
Stream size                      : 2.40 GiB (77%)
Writing library                  : x264 core 114 r1924 08d04a4
Encoded date                     : UTC 2011-06-12 06:29:32
Tagged date                      : UTC 2011-06-12 06:34:44

Audio #1
ID                               : 2
Format                           : AAC
Format/Info                      : Advanced Audio Codec
Format version                   : Version 4
Format profile                   : LC
Format settings, SBR             : No
Codec ID                         : 40
Duration                         : 3h 55mn
Bit rate mode                    : Variable
Bit rate                         : 124 Kbps
Maximum bit rate                 : 143 Kbps
Channel(s)                       : 2 channels
Channel positions                : L R
Sampling rate                    : 48.0 KHz
Resolution                       : 16 bits
Stream size                      : 210 MiB (7%)
Encoded date                     : UTC 2011-06-12 06:33:19
Tagged date                      : UTC 2011-06-12 06:34:44

Audio #2
ID                               : 3
Format                           : AAC
Format/Info                      : Advanced Audio Codec
Format version                   : Version 4
Format profile                   : LC
Format settings, SBR             : No
Codec ID                         : 40
Duration                         : 3h 55mn
Bit rate mode                    : Variable
Bit rate                         : 294 Kbps
Maximum bit rate                 : 318 Kbps
Channel(s)                       : 6 channels
Channel positions                : Front: L C R, Rear: L R, LFE
Sampling rate                    : 48.0 KHz
Resolution                       : 16 bits
Stream size                      : 496 MiB (16%)
Encoded date                     : UTC 2011-06-12 06:33:38
Tagged date                      : UTC 2011-06-12 06:34:44

Seed and say thanks if you like !! 
A lot of effort has gone in encoding ....

SCREENS :
 
http://postimg.com/46000/photo-45547.jpg
 
http://postimg.com/46000/photo-45548.jpg
 
http://postimg.com/46000/photo-45549.jpg
